<?xml version="1.0" encoding="UTF-8" standalone="no"?>
<!DOCTYPE svg SYSTEM "http://www.w3.org/Graphics/SVG/1.1/DTD/svg11.dtd" [
<!ENTITY % SVG.External.attrib
"xmlns:vm2d CDATA #FIXED 'http://www.cortona3d.com/vm2d'
vm2d:name CDATA #IMPLIED
vm2d:type CDATA #IMPLIED">
]>
<svg xmlns="http://www.w3.org/2000/svg" xmlns:vm2d="http://www.cortona3d.com/vm2d" xmlns:xlink="http://www.w3.org/1999/xlink" version="1.1" width="210mm" height="297mm" viewBox="0 0 794 1123" fill="none" fill-rule="evenodd" stroke-miterlimit="5">
  <title>Assembled View</title>
  <desc>"Generator:ParallelGraphics Cortona2D","ProfileId:WebCGM""ProfileEd:2.1""ColourClass:colour""Source:Cortona3D RapidCatalog v.9.0.0.332""Date:20160509"</desc>
  <rect width="794" height="1123" fill="#fff"/>
  <defs/>
  <g id="AUTOID_001" vm2d:name="C3DDrawing" vm2d:type="layer">
    <g transform="matrix(3.78095,0,0,3.78095,-0,1122.97)" stroke-width="0.35" stroke-linecap="round" stroke-linejoin="round">
      <path stroke="#000" d="M111.79,-150.28 L112.95,-148.53 111.71,-145.43 M109.31,-144.06 L111.71,-145.43 M107.83,-149.81 L106.59,-146.7 107.75,-144.96 109.31,-144.06 M107.83,-149.81 L110.22,-151.18 111.79,-150.28 M136.21,-104.39 L132.3,-106.62 131.95,-106.95 131.73,-107.44 131.65,-108.06 131.73,-108.77 131.95,-109.52 132.3,-110.26 132.76,-110.94 133.29,-111.52 133.86,-111.94 134.44,-112.2 134.97,-112.26 135.43,-112.12 M137.77,-103.99 L137.23,-103.93 136.77,-104.07 M138.91,-104.67 L138.34,-104.24 137.77,-103.99 M139.9,-105.92 L139.45,-105.24 138.91,-104.67 M140.41,-107.2 L140.26,-106.66 139.9,-105.92 M136.05,-111.76 L135.99,-111.8 M136.21,-104.39 L136.77,-104.07 M135.43,-112.12 L135.99,-111.8 M138.83,-107.75 L139.36,-107.45 M138.05,-107.31 L138.83,-107.75 M139.36,-107.45 L139.73,-106.88 M138.05,-107.31 L137.64,-106.3 M139.32,-105.86 L139.73,-106.88 M138.01,-105.73 L137.64,-106.3 M138.54,-105.43 L138.01,-105.73 M139.32,-105.86 L138.54,-105.43 M134.92,-109.98 L135.44,-109.68 M134.13,-109.55 L134.92,-109.98 M135.44,-109.68 L135.81,-109.11 M134.13,-109.55 L133.72,-108.54 M135.4,-108.09 L135.81,-109.11 M134.09,-107.96 L133.72,-108.54 M134.62,-107.66 L134.09,-107.96 M135.4,-108.09 L134.62,-107.66 M167.55,-135.24 L168.68,-134.59 M166.22,-134.46 L167.55,-135.24 M168.68,-134.59 L169.34,-133.63 M168.66,-131.89 L169.34,-133.63 M166.22,-134.46 L165.54,-132.72 M168.66,-131.89 L167.33,-131.12 M166.2,-131.76 L165.54,-132.72 M167.33,-131.12 L166.2,-131.76 M149.89,-145.35 L151.02,-144.71 M148.55,-144.57 L149.89,-145.35 M151.02,-144.71 L151.68,-143.75 M151,-142.01 L151.68,-143.75 M148.55,-144.57 L147.88,-142.84 M151,-142.01 L149.67,-141.23 M148.54,-141.88 L147.88,-142.84 M149.67,-141.23 L148.54,-141.88 M163.86,-134.73 L161.18,-136.25 M165.97,-128.62 L163.86,-134.73 M150.26,-125.61 L154.66,-133.98 M161.18,-136.25 L154.66,-133.98 M165.97,-128.62 L161.57,-120.25 M150.26,-125.61 L152.37,-119.51 155.05,-117.99 161.57,-120.25 M147.91,-120.34 L150.95,-118.61 152.82,-119.26 M161.88,-135.85 L161.18,-137.93 158.14,-139.66 M169.85,-132.79 L170.29,-133.96 170.53,-135.1 170.56,-136.16 170.37,-137.08 169.98,-137.79 169.42,-138.26 M169.85,-132.79 L169.24,-131.66 168.49,-130.64 167.65,-129.79 166.76,-129.15 165.95,-128.58 M159.38,-119.49 L158.06,-117.89 154.9,-115.04 151.63,-113.01 148.44,-111.93 147.51,-111.63 146.55,-111.07 146.26,-110.83 M145.23,-109.85 L144.75,-109.32 143.93,-108.41 143.04,-107.71 142.15,-107.24 141.29,-107.05 140.52,-107.13 139.89,-107.49 M167.93,-138.67 L167.3,-139.13 166.84,-139.83 166.57,-140.74 165.58,-143.87 163.85,-146.19 161.49,-147.54 M158.1,-149.47 L155.23,-149.78 152.03,-149.04 151.11,-148.81 150.93,-148.82 M161.49,-147.54 L158.1,-149.47 M152.95,-147.23 L152.38,-147.78 151.84,-148.3 M139.89,-107.49 L136.85,-109.22 M148.45,-150.22 L151.84,-148.3 M135.71,-111.96 C135.71,-111.96 135.76,-112.65 135.84,-112.98 135.94,-113.37 136.08,-113.76 136.2,-114.15 136.47,-115.05 136.73,-115.65 136.77,-116.6 136.86,-118.48 135.92,-120.04 135.82,-121.96 M138.27,-134.31 C136.42,-130.42 135.58,-126.18 135.82,-121.96 M138.27,-134.31 C139.75,-137.45 141.69,-139.82 141.98,-143.3 M148.45,-150.22 C146.97,-151.29 144.56,-149.83 143.07,-146.95 142.46,-145.78 142.08,-144.49 141.98,-143.3 M166.96,-139.66 L169.42,-138.26 M144.08,-109.58 L144.59,-110.24 M144.23,-113.78 L145.43,-113.1 145.43,-111.45 M144.08,-109.58 L142.73,-109.69 141.54,-110.37 M143.59,-110.78 L143.58,-110.81 M143.52,-111.05 L143.52,-111.06 143.52,-111.07 M143.52,-111.1 L143.59,-111.43 143.8,-111.79 144.08,-112.04 144.36,-112.12 M103.88,-147.42 L103.35,-146.99 102.9,-146.37 102.6,-145.67 102.49,-145 102.6,-144.44 102.9,-144.1 M103.88,-147.42 L104.41,-147.62 104.85,-147.53 M102.57,-153.86 C95.97,-145.8 92.766,-134.9 94.581,-126.68 M94.581,-126.68 C95.166,-124.03 96.771,-121.75 99.02,-120.37 M99.02,-120.37 C105.41,-116.44 112,-112.81 118.58,-109.2 M123.27,-162.95 C117.54,-166.01 109.71,-162.57 102.57,-153.86 M130.59,-160.27 L132.58,-161.11 135.82,-161.43 138.61,-160.57 M158.91,-149.03 L158.98,-148.96 M138.61,-160.57 L158.91,-149.03 M135.86,-103.02 L136.46,-102.83 137.16,-102.86 137.91,-103.12 138.68,-103.6 141.83,-105.99 M135.86,-103.02 L115.53,-114.59 M130.68,-112.35 L128.73,-112.63 108.41,-124.19 M143.06,-104.45 C145.56,-102.38 150.01,-103.57 153.48,-107.25 M153.48,-107.25 C154.96,-108.82 156.31,-110.51 157.29,-112.45 157.78,-113.41 158.27,-114.39 158.62,-115.42 158.95,-116.4 159.28,-117.39 159.45,-118.41 159.51,-118.79 159.57,-119.56 159.57,-119.56 M141.2,-105.51 L143.06,-104.45 M128.95,-106.95 L128.92,-106.94 124.88,-106.54 121.4,-107.6 M125.22,-161.78 L126.11,-162.11 126.93,-162.16 127.65,-161.94 M147.88,-150.43 C147.88,-150.43 134.49,-158.3 127.65,-161.94 M118.58,-109.2 L121.4,-107.6 M125.29,-161.8 L123.27,-162.95 M143.53,-110.96 L143.6,-110.77 143.85,-110.61 144.15,-110.64 M144.52,-111.76 L144.75,-111.83 144.89,-111.73 M144.11,-110.87 L144.15,-110.7 144.27,-110.39 144.52,-110.23 144.82,-110.26 M144.08,-110.68 L144.18,-110.62 M144.85,-111.57 L145.19,-111.38 M144.75,-110.3 L144.85,-110.24 M145.52,-111.19 L145.86,-111 M145.42,-109.92 L145.5,-109.87 M146.02,-109.74 L146.23,-109.92 146.39,-110.19 146.45,-110.46 146.4,-110.68 146.25,-110.78 M146.19,-110.81 L146.25,-110.78 M144.52,-111.76 L144.18,-111.95 M145.19,-111.38 L145.42,-111.45 145.56,-111.35 M144.78,-110.48 L144.82,-110.32 144.94,-110.01 145.19,-109.85 145.49,-109.88 M145.86,-111 L146.09,-111.07 146.23,-110.97 M145.55,-109.66 L145.45,-110.1 M145.55,-109.66 L145.74,-109.53 146.02,-109.74 M144.23,-112.09 L144.27,-111.9 M144.89,-111.73 L144.94,-111.52 M145.56,-111.35 L145.61,-111.14 M146.23,-110.97 L146.28,-110.75 M102.71,-144.31 L103.59,-143.81 M104.66,-147.57 L105.46,-147.11 105.75,-146.78 105.85,-146.25 105.75,-145.6 105.46,-144.93 105.03,-144.34 104.53,-143.92 104.02,-143.73 103.59,-143.81 M126.01,-162.07 L123.55,-163.47 M105.52,-159.66 C101.48,-156.22 97.859,-150.84 95.108,-144.19 M95.108,-144.19 C93.887,-141.24 92.683,-136.14 92.81,-132.85 92.872,-131.24 92.978,-129.6 93.394,-128.03 93.752,-126.69 94.387,-125.42 95.108,-124.24 95.34,-123.86 96.093,-123.33 96.093,-123.33 M122.09,-164.31 C117.6,-166.77 112.06,-165.21 105.52,-159.66 M122.09,-164.31 L123.55,-163.47 M120.75,-111.62 L120.4,-111.07 M124.78,-108.21 L125.29,-109.04 M120.9,-108.65 L120.4,-111.07 M122.5,-107.73 L120.9,-108.65 M124.78,-108.21 L122.5,-107.73 M106.76,-124.57 L108.36,-123.65 M104.44,-123.89 L106.76,-124.57 M108.36,-123.65 L109,-121.35 M104.44,-123.89 L102.76,-120.92 M107.32,-118.38 L109,-121.35 M103.4,-118.63 L102.76,-120.92 M105,-117.71 L103.4,-118.63 M107.32,-118.38 L105,-117.71 M114.8,-152.27 L112.4,-150.91 M114.8,-152.27 L116.04,-155.38 M110.8,-151.83 L109.64,-153.57 M112.4,-150.91 L110.8,-151.83 M114.88,-157.12 L116.04,-155.38 M113.28,-158.04 L114.88,-157.12 M110.88,-156.68 L113.28,-158.04 M110.88,-156.68 L109.64,-153.57 M101.4,-137.17 L103,-136.25 M99.007,-135.81 L101.4,-137.17 M103,-136.25 L104.16,-134.5 M99.007,-135.81 L97.765,-132.7 M102.91,-131.4 L104.16,-134.5 M98.92,-130.96 L97.765,-132.7 M100.52,-130.04 L98.92,-130.96 M102.91,-131.4 L100.52,-130.04 M137.26,-160.99 L137.26,-180.13 M120.68,-108.01 C120.68,-108.01 118.3,-103.15 116.34,-101.4 113.3,-98.692 109.35,-97.216 105.83,-95.172 105.21,-94.816 104.41,-94.541 103.71,-94.447 103.31,-94.392 102.9,-94.338 102.49,-94.346 102.31,-94.349 101.94,-94.384 101.94,-94.384 M116.84,-108.68 L115.85,-108.63 114.99,-108.9 M125.62,-162.3 L125.65,-163.63 125.41,-164.79 124.91,-165.68 124.19,-166.27 M104.81,-100.98 L104.64,-100.45 104.13,-99.997 103.37,-99.694 102.46,-99.584 101.94,-99.641 M101.94,-101.89 L101.94,-93.526 M93.645,-88.609 L101.94,-93.526 M101.94,-101.89 L96.964,-104.74 M88.887,-91.315 L93.645,-88.609 M91.524,-92.878 C92.295,-93.244 92.51,-94.297 92.516,-95.044 92.588,-104.05 92.535,-113.07 92.516,-122.08 92.514,-122.87 92.333,-123.52 92.062,-124.26 91.784,-125.03 91.316,-125.74 90.822,-126.38 90.582,-126.69 90.293,-126.97 90.005,-127.23 89.741,-127.48 89.128,-127.86 89.128,-127.86 89.128,-127.86 73.319,-136.88 65.413,-141.35 M100.75,-119.38 L100.21,-119.06 99.128,-118.71 98.132,-118.69 97.278,-119.01 M85.564,-184.5 L83.45,-184.72 80.573,-184.27 77.554,-183.12 M96.965,-119.2 L96.964,-104.74 M111.43,-163.85 L110.64,-164.3 M68.626,-175.98 L69.361,-176.79 69.873,-178.25 70.602,-179.66 71.508,-180.96 72.54,-182.06 73.642,-182.91 74.753,-183.47 75.813,-183.69 76.763,-183.57 M60.896,-140.33 L60.896,-144.61 M59.457,-147.27 C59.186,-148.34 59.415,-149.55 58.91,-150.53 58.756,-150.83 58.279,-150.82 58.062,-151.08 M57.223,-154.69 C56.994,-153.25 57.285,-151.99 58.062,-151.08 M59.118,-159.41 C58.165,-158.11 57.506,-156.47 57.223,-154.69 M59.118,-159.41 C60.098,-160.75 60.36,-161.39 60.917,-162.89 61.406,-164.21 61.069,-165.1 61.249,-166.5 M62.976,-170.77 C62.005,-169.24 61.413,-167.77 61.249,-166.5 M62.976,-170.77 C63.739,-171.98 64.842,-173.11 66.104,-173.8 67.331,-174.47 67.69,-174.91 68.626,-175.98 M60.896,-144.05 L60.555,-144.51 59.457,-147.27 M76.763,-183.57 L110.64,-164.3 M124.19,-166.27 L119.1,-169.16 M108.78,-112.43 L114.99,-108.9 M96.965,-119.2 L97.278,-119.01 M85.564,-190.83 L85.564,-190.83 C85.674,-188.48 85.633,-186.11 85.564,-183.75 85.539,-182.89 86.319,-182.2 86.988,-181.81 94.867,-177.29 102.79,-172.78 110.7,-168.32 M110.7,-168.32 C112.59,-167.26 115.56,-167.28 117.41,-168.36 M117.41,-168.36 C125.17,-172.92 132.93,-177.52 140.64,-182.13 141.39,-182.58 141.95,-183.2 142,-184.09 M142,-191.17 L142,-184.09 M79.169,-120.78 L80.032,-119.01 81.304,-117.17 M63.719,-141.8 L63.017,-141.59 M69.198,-116.78 C70.796,-113.01 72.9,-109.97 75.246,-108.05 M75.246,-108.05 C76.063,-107.38 76.885,-106.68 77.824,-106.19 78.65,-105.77 79.491,-105.31 80.402,-105.11 81.021,-104.98 82.294,-104.93 82.294,-104.93 M69.198,-116.78 L68.203,-120.08 67.864,-123.21 68.203,-125.96 68.928,-127.54 M90.417,-92.222 L91.524,-92.878 M63.017,-141.59 L61.911,-140.93 M100.35,-193.56 C100.35,-193.56 100.99,-194.6 101.39,-195.06 102.01,-195.76 102.83,-196.27 103.62,-196.78 104.52,-197.36 105.54,-197.73 106.54,-198.11 108.73,-198.94 111.33,-199.19 113.64,-199.26 116.07,-199.34 118.45,-198.88 120.77,-198.2 121.8,-197.89 122.78,-197.4 123.74,-196.9 124.58,-196.46 125.32,-195.84 126.03,-195.2 126.53,-194.76 127.22,-193.59 127.22,-193.59 M85.564,-192.76 C85.594,-192.12 85.583,-191.48 85.564,-190.83 M85.564,-190.83 C85.545,-190.15 86.079,-189.42 86.988,-188.89 M86.988,-188.89 C94.85,-184.34 102.8,-179.88 110.7,-175.4 111.4,-175.01 112.05,-174.84 112.84,-174.7 114.34,-174.44 116.09,-174.67 117.41,-175.44 125.18,-179.97 132.92,-184.61 140.64,-189.21 141.39,-189.65 141.95,-190.28 142,-191.17 L142,-193.1 M65.477,-114.57 L64.482,-117.87 64.143,-121 64.482,-123.75 65.477,-125.92 66.74,-127.07 M80.779,-103.2 C80.779,-103.2 79.662,-102.77 79.076,-102.68 78.283,-102.55 77.462,-102.75 76.675,-102.91 74.83,-103.3 72.915,-104.7 71.522,-105.84 M65.477,-114.57 C67.073,-110.81 69.176,-107.77 71.522,-105.84 M66.563,-115.21 L65.568,-118.51 65.229,-121.64 65.568,-124.39 66.563,-126.56 67.318,-127.25 M81.291,-103.67 C81.291,-103.67 80.549,-103.39 80.161,-103.32 79.368,-103.2 78.546,-103.39 77.76,-103.56 75.915,-103.94 74.001,-105.34 72.607,-106.49 M66.563,-115.21 C68.161,-111.45 70.263,-108.41 72.607,-106.49 M66.356,-126.96 L68.418,-127.59 70.82,-127.36 73.398,-126.28 75.976,-124.42 78.378,-121.92 80.422,-118.97 M80.935,-117.93 L82.023,-115.69 83.018,-112.39 83.358,-109.26 83.018,-106.51 82.023,-104.34 80.441,-102.89 M67.539,-115.79 C69.136,-112.03 71.24,-108.99 73.586,-107.06 M73.586,-107.06 C74.403,-106.39 75.226,-105.7 76.164,-105.21 76.99,-104.78 77.831,-104.32 78.742,-104.13 79.529,-103.97 80.35,-103.77 81.144,-103.9 81.349,-103.93 81.739,-104.08 81.739,-104.08 M67.539,-115.79 L66.544,-119.1 66.204,-122.23 66.544,-124.97 67.539,-127.15 67.823,-127.41 M60.664,-104.93 C60.942,-104.71 61.228,-104.48 61.54,-104.3 69.428,-99.796 77.324,-95.244 85.256,-90.814 85.911,-90.448 86.941,-90.103 87.651,-90.583 89.4,-91.69 91.391,-92.097 91.41,-94.388 91.482,-103.39 91.429,-112.42 91.41,-121.42 91.408,-122.22 91.226,-122.86 90.956,-123.61 90.435,-125.05 89.352,-126.44 88.022,-127.21 80.16,-131.76 72.213,-136.22 64.307,-140.7 63.55,-141.13 62.723,-141.32 61.911,-140.93 L59.145,-139.29 58.607,-138.8 58.268,-138.06 58.153,-137.12 58.153,-134.09 M58.153,-133.35 C58.153,-133.35 58.091,-117.84 58.153,-110.09 58.154,-109.96 58.196,-109.69 58.196,-109.69 M60.558,-105.04 L60.664,-104.93 M99.638,-195.72 C99.638,-195.72 99.799,-196.91 100,-197.47 100.28,-198.23 100.85,-198.86 101.39,-199.47 102.64,-200.9 104.84,-201.88 106.54,-202.52 108.73,-203.35 111.33,-203.6 113.64,-203.67 116.07,-203.75 118.45,-203.29 120.77,-202.61 122.8,-202.01 124.47,-201 126.03,-199.61 126.64,-199.07 127.09,-198.34 127.49,-197.63 127.79,-197.09 127.93,-195.83 127.93,-195.83 M99.789,-195.1 C99.789,-195.1 99.883,-195.79 100,-196.12 100.28,-196.88 100.85,-197.51 101.39,-198.12 102.64,-199.55 104.84,-200.53 106.54,-201.17 108.73,-202 111.33,-202.25 113.64,-202.32 116.07,-202.4 118.45,-201.94 120.77,-201.26 122.8,-200.66 124.47,-199.66 126.03,-198.27 126.64,-197.72 127.09,-197 127.49,-196.28 127.68,-195.93 127.77,-195.11 127.77,-195.11 M103.82,-190.25 L101.53,-191.95 100.08,-193.93 99.554,-196.07 M128.01,-196.23 L127.56,-194.09 126.18,-192.09 123.95,-190.37 121.02,-189.04 117.61,-188.19 115.73,-188.04 M112.51,-187.99 L110.24,-188.15 106.79,-188.95 103.82,-190.25 M99.917,-194.58 C99.917,-194.58 99.954,-194.86 100,-194.99 100.28,-195.75 100.85,-196.38 101.39,-196.99 102.01,-197.7 102.83,-198.2 103.62,-198.71 104.52,-199.29 105.54,-199.66 106.54,-200.04 108.73,-200.87 111.33,-201.12 113.64,-201.19 116.07,-201.27 118.45,-200.81 120.77,-200.13 121.8,-199.82 122.78,-199.33 123.74,-198.83 124.58,-198.39 126.03,-197.14 126.03,-197.14 L127.49,-195.15 127.65,-194.5 M86.919,-197.94 L86.176,-197.36 85.714,-196.7 85.564,-195.98 C85.614,-194.91 85.596,-193.84 85.564,-192.76 M85.564,-192.76 C85.545,-192.08 86.079,-191.35 86.988,-190.83 M86.988,-190.83 C94.85,-186.27 102.8,-181.81 110.7,-177.34 111.4,-176.94 112.05,-176.77 112.84,-176.64 114.34,-176.37 116.09,-176.6 117.41,-177.38 125.18,-181.9 132.92,-186.54 140.64,-191.14 141.39,-191.59 141.95,-192.21 142,-193.1 L142,-196.32 141.83,-197.03 141.34,-197.69 140.58,-198.26 138.85,-199.24 M136.08,-200.81 L117.15,-211.58 M110.63,-211.92 C110.63,-211.92 110.3,-211.79 110.15,-211.71 103.65,-207.87 90.633,-200.14 90.633,-200.14 M89.656,-199.56 L86.919,-197.94 M61.28,-112.39 L59.463,-111.32 57.964,-109.39 M64.125,-110.71 L61.28,-112.39 M59.311,-105.78 L62.157,-104.1 63.973,-105.17 M59.311,-105.78 L57.964,-109.39 M64.125,-110.71 L65.472,-107.1 M63.973,-105.17 L65.472,-107.1 M82.722,-100.19 L80.906,-99.112 79.42,-97.172 M85.568,-98.518 L82.722,-100.19 M80.781,-93.562 L83.627,-91.892 85.444,-92.969 M80.781,-93.562 L79.42,-97.172 M85.568,-98.518 L86.929,-94.908 M85.444,-92.969 L86.929,-94.908 M61.28,-136.85 L59.463,-135.77 57.964,-133.85 M64.125,-135.16 L61.28,-136.85 M59.311,-130.24 L62.157,-128.55 63.973,-129.63 M59.311,-130.24 L57.964,-133.85 M64.125,-135.16 L65.472,-131.55 M63.973,-129.63 L65.472,-131.55 M82.722,-124.65 L80.906,-123.57 79.42,-121.63 M85.568,-122.98 L82.722,-124.65 M80.781,-118.02 L83.627,-116.35 85.444,-117.43 M80.781,-118.02 L79.42,-121.63 M85.568,-122.98 L86.929,-119.37 M85.444,-117.43 L86.929,-119.37 M88.782,-195.7 L88.8,-197.83"/>
      <path stroke="#000" d="M91.539,-194.03 L88.782,-195.7 M88.8,-197.83 L89.891,-200.03 M91.539,-194.03 L95.388,-194.57 M93.739,-200.57 L89.891,-200.03 M96.479,-196.78 L95.388,-194.57 M96.497,-198.9 L96.479,-196.78 M93.739,-200.57 L96.497,-198.9 M115.17,-188.37 L117.95,-186.71 M115.17,-188.37 L111.33,-187.82 M117.93,-184.59 L116.86,-182.37 M117.95,-186.71 L117.93,-184.59 M110.26,-185.61 L111.33,-187.82 M110.24,-183.48 L110.26,-185.61 M113.02,-181.82 L110.24,-183.48 M113.02,-181.82 L116.86,-182.37 M114.76,-213.03 L117.52,-211.36 M114.76,-213.03 L110.91,-212.49 M117.5,-209.23 L116.41,-207.03 M117.52,-211.36 L117.5,-209.23 M109.82,-210.28 L110.91,-212.49 M109.8,-208.16 L109.82,-210.28 M112.56,-206.49 L109.8,-208.16 M112.56,-206.49 L116.41,-207.03 M131.27,-195.94 L131.28,-198.07 M134.04,-194.28 L131.27,-195.94 M131.28,-198.07 L132.35,-200.28 M134.04,-194.28 L137.88,-194.83 M136.2,-200.83 L132.35,-200.28 M138.95,-197.04 L137.88,-194.83 M138.97,-199.17 L138.95,-197.04 M136.2,-200.83 L138.97,-199.17 M38.705,-187.3 L31.527,-191.38 30.389,-190.7 M30.389,-190.63 L30.389,-190.7 M38.705,-187.22 L38.705,-187.3 M28.612,-192.88 L28.612,-191.79 M27.677,-192.32 L30.455,-190.74 M37.664,-186.64 L40,-185.31 40.935,-185.87 M25.451,-187.92 L25.614,-189.09 26.081,-190.31 26.798,-191.43 27.677,-192.32 M40.002,-178.36 L39.846,-178.45 M38.906,-178.98 L38.404,-179.27 26.081,-186.28 M30.208,-192.75 L42.531,-185.74 42.675,-185.66 M30.208,-192.75 L29.491,-193.03 28.612,-192.88 M29.652,-191.2 L29.719,-191.24 M26.081,-186.28 L25.614,-186.94 25.451,-187.92 M53.929,-157.36 L53.895,-160.11 M54.797,-156.86 L53.929,-157.36 M55.895,-162.68 L53.895,-160.11 M65.799,-179.84 L65.785,-180.98 M69.935,-183.51 L70.014,-183.46 M67.842,-183.62 L69.935,-183.51 M67.842,-183.62 L65.785,-180.98 M40.463,-180.11 L41.701,-182.56 43.285,-184.56 M40.463,-180.11 L39.852,-177.79 M70.092,-179.81 C67.017,-177.19 64.462,-173.5 62.405,-170.09 61.311,-168.28 60.489,-166.3 59.679,-164.34 58.906,-162.47 58.368,-160.5 57.966,-158.51 57.852,-157.95 57.784,-156.8 57.784,-156.8 M57.511,-151.94 L57.966,-148.19 59.679,-144.39 60.896,-143.27 M85.564,-184.79 L83.106,-185.53 78.97,-185.07 75.826,-183.69 M71.371,-180.76 L70.092,-179.81 M65.595,-223.74 C57.508,-209.54 49.347,-195.32 41.311,-181.09 M41.311,-181.09 C37.436,-174.23 37.504,-166.45 41.462,-163.71 41.538,-163.66 41.616,-163.61 41.694,-163.56 M65.595,-223.74 L70.112,-221.17 85.368,-212.46 M57.204,-195.77 L70.112,-218.44 M78.383,-200.19 L79.522,-187.05 M54.733,-156.26 L45.082,-161.64 M85.368,-212.46 L70.361,-186.11 M71.707,-184.73 C64.707,-180.22 60.004,-173.56 56.856,-165.95 55.337,-162.28 54.704,-158.55 54.558,-154.61 54.441,-151.43 55.223,-148.68 56.856,-146 57.498,-144.94 58.544,-144.15 59.581,-143.48 60.004,-143.21 60.896,-142.73 60.896,-142.73 M47.823,-182.32 C44.973,-178.7 43.048,-173.71 43.15,-170.21 M47.823,-182.32 C49.258,-184.14 50.536,-185.29 52.457,-186.55 53.193,-187.03 54.033,-187.35 54.863,-187.64 55.52,-187.87 56.937,-187.91 56.937,-187.91 M43.15,-170.21 L43.437,-167.58 44.33,-165.49 45.768,-164.07 53.903,-159.44 M71.707,-184.73 L76.146,-186.68 80.282,-187.13 83.834,-186.07 M85.564,-185.08 L83.834,-186.07 M68.15,-183.6 L63.413,-196.15 M56.937,-187.91 L60.378,-193.96 M70.756,-184.02 L66.934,-194.14 M71.064,-184.25 L70.361,-186.11 M45.082,-161.64 L41.694,-163.56 M58.819,-220.97 C55.276,-218.88 51.988,-214.73 50.196,-210.07 M50.196,-210.07 C49.326,-207.81 48.866,-205.54 48.862,-203.49 M48.862,-203.49 C48.86,-202.55 48.961,-201.6 49.201,-200.69 49.406,-199.91 49.735,-199.15 50.196,-198.48 50.369,-198.24 50.863,-197.87 50.863,-197.87 M64.668,-222.11 L63.798,-222.37 61.397,-222.11 58.819,-220.97 M72.59,-211.22 C69.766,-211.64 66.106,-208.41 64.415,-204 63.031,-200.39 63.371,-197 65.245,-195.73 M70.113,-188.4 L68.824,-189.14 M61.507,-193.31 L57.204,-195.77 M63.484,-199.5 L63.595,-199.4 M69.701,-210.43 L69.854,-210.39 M69.149,-210.07 L69.306,-209.72 69.456,-208.48 69.306,-207.06 68.863,-205.55 68.16,-204.07 67.243,-202.71 66.176,-201.56 65.031,-200.71 63.885,-200.2 63.514,-200.16 M72.59,-211.22 L73.851,-210.84 M43.905,-186.64 L44.332,-186.4 M43.538,-185 L43.172,-184.71 41.533,-182.64 40.316,-180.23 39.669,-177.78 39.669,-177.32 M43.905,-186.64 L42.462,-185.49 40.661,-183.21 39.324,-180.57 38.613,-177.87 38.613,-175.45 38.94,-174.6"/>
      <path stroke="#000" stroke-width="0.18" d="M109.39,-148.91 L107.83,-149.81 M109.39,-148.91 L111.79,-150.28 M109.39,-148.91 L108.15,-145.8 106.59,-146.7 M108.15,-145.8 L109.31,-144.06 M135.99,-111.8 L135.53,-111.93 135,-111.87 134.43,-111.62 133.85,-111.2 133.32,-110.62 132.86,-109.94 132.51,-109.2 132.29,-108.45 132.21,-107.74 132.29,-107.12 132.51,-106.63 132.86,-106.3 136.77,-104.07 M138.54,-105.43 L138.16,-106 M139.36,-107.45 L138.57,-107.01 M137.64,-106.3 L138.16,-106 138.57,-107.01 138.05,-107.31 M134.62,-107.66 L134.25,-108.23 M135.44,-109.68 L134.66,-109.25 M133.72,-108.54 L134.25,-108.23 134.66,-109.25 134.13,-109.55 M167.33,-131.12 L166.67,-132.08 M168.68,-134.59 L167.35,-133.81 M165.54,-132.72 L166.67,-132.08 167.35,-133.81 166.22,-134.46 M149.67,-141.23 L149.01,-142.19 M151.02,-144.71 L149.69,-143.93 M147.88,-142.84 L149.01,-142.19 149.69,-143.93 148.55,-144.57 M154.66,-133.98 L157.35,-132.46 152.94,-124.09 M157.35,-132.46 L163.86,-134.73 M155.05,-117.99 L152.94,-124.09 150.26,-125.61 M151.5,-122.02 L151.16,-122.32 150.56,-124.1 150.58,-124.69 M150.63,-126.31 L150.63,-126.38 151.35,-128.89 152.64,-131.32 154.34,-133.39 154.36,-133.4 M155.51,-134.28 L156.25,-134.84 158.14,-135.49 158.77,-135.41 M153.18,-131.16 L153.1,-131.06 151.81,-128.63 151.77,-128.47 M150.65,-137.06 L153.69,-135.33 161.18,-137.93 M153.69,-135.33 L148.57,-125.67 M150.95,-118.61 L148.57,-125.67 145.53,-127.4 M169.42,-138.26 L168.7,-138.46 167.93,-138.67 M161.49,-147.54 L158.62,-147.85 155.42,-147.11 154.5,-146.88 153.67,-146.92 152.95,-147.23 M139.89,-107.49 C138.61,-108.78 139.12,-110.7 139.58,-112.22 140.07,-113.82 140.29,-115.08 139.93,-116.72 139.02,-120.78 139.06,-124.01 140.09,-128.09 141.11,-132.07 143.7,-135.17 144.98,-138.98 145.64,-140.92 145.25,-142.91 146.26,-144.79 M151.84,-148.3 C150.16,-149.18 147.84,-147.72 146.26,-144.79 M144.36,-112.12 L144.56,-112.01 144.62,-111.79 M143.6,-110.78 L143.59,-110.78 M145.43,-113.1 L144.08,-113.21 142.89,-113.88 M144.08,-113.21 L142.73,-111.5 M141.54,-112.18 L142.73,-111.5 142.73,-109.69 M144.52,-111.76 L144.37,-111.68 144.21,-111.47 144.11,-111.17 144.11,-110.87 M144.75,-111.83 L144.54,-111.73 144.32,-111.47 144.17,-111.09 144.15,-110.7 M144.08,-110.68 L143.88,-110.81 143.77,-111.06 143.78,-111.36 143.88,-111.66 144.03,-111.87 144.18,-111.95 M144.85,-111.57 L144.7,-111.49 144.55,-111.28 144.45,-110.98 144.44,-110.67 144.55,-110.43 144.75,-110.3 M145.19,-111.38 L145.04,-111.3 144.88,-111.09 144.78,-110.79 144.78,-110.48 M145.52,-111.19 L145.37,-111.11 145.22,-110.9 145.12,-110.6 145.11,-110.29 145.22,-110.05 145.42,-109.92 M145.86,-111 L145.71,-110.92 145.55,-110.71 145.45,-110.41 145.45,-110.1 M146.19,-110.81 L146.04,-110.73 M146.25,-110.78 L146.04,-110.73 145.83,-110.55 145.68,-110.29 M145.42,-111.45 L145.21,-111.35 144.99,-111.09 144.84,-110.71 144.82,-110.32 M146.09,-111.07 L145.88,-110.97 145.66,-110.71 145.51,-110.33 145.49,-109.94 145.55,-109.66 M102.9,-144.1 L103.18,-144.05 M104.98,-147.38 L104.85,-147.53 M106.53,-137.61 C103.81,-131.63 104.61,-125.87 108.41,-124.19 M106.53,-137.61 C108.94,-142.91 112.78,-147.58 118.77,-148.47 M143.06,-104.45 L141.83,-105.99 M139.09,-136.9 C133.84,-136.13 127.85,-130.03 125.71,-123.29 124.02,-117.94 125.24,-113.61 128.73,-112.63 M115.53,-114.59 L110.84,-117.26 110.36,-117.68 110.04,-118.3 109.88,-119.08 109.9,-119.99 110.26,-123.14 M139.09,-136.9 L139.99,-138.44 140.96,-139.93 141.52,-140.7 M139.09,-136.9 L118.77,-148.47 M158.91,-149.03 L158.83,-149.05 M157.03,-149.58 L156.04,-149.87 152.7,-149.49 151.21,-148.83 M135.86,-103.02 L131.17,-105.7 130.69,-106.12 130.37,-106.74 130.21,-107.52 130.23,-108.42 130.68,-112.35 M147.68,-150.47 L147.4,-150.58 146.56,-150.57 145.64,-150.26 144.7,-149.67 143.8,-148.84 142.98,-147.82 142.31,-146.66 141.81,-145.44 141.51,-144.23 141.45,-143.1 141.61,-142.12 141.79,-141.74 M141.74,-141.49 L121.66,-152.91 M121.4,-107.6 C114.69,-110.95 108.24,-114.84 101.84,-118.76 96.375,-122.11 96.424,-129.36 97.306,-134.89 M125.22,-161.78 C116.27,-164.01 104.76,-155.44 99.513,-142.65 98.461,-140.09 97.715,-137.47 97.306,-134.89 M121.66,-152.91 L121.28,-153.67 121.12,-154.64 121.18,-155.75 121.46,-156.95 121.95,-158.16 122.61,-159.31 123.41,-160.33 124.3,-161.17 125.22,-161.78 M121.66,-152.91 L120.63,-151.49 119.66,-150.01 118.77,-148.47 M103.59,-143.81 L103.3,-144.14 103.2,-144.68 103.3,-145.33 103.59,-146 104.02,-146.59 104.53,-147.01 105.03,-147.19 105.46,-147.11 M99.136,-148.75 C99.136,-148.75 99.24,-148.99 99.301,-149.1 100.3,-150.97 101.58,-152.68 102.85,-154.38 104.07,-156 105.53,-157.42 106.99,-158.82 M123.55,-163.47 C118.82,-165.84 112.43,-164.04 106.99,-158.82 M122.5,-107.73 L122,-110.15 M120.4,-111.07 L122,-110.15 122.35,-110.71 M105,-117.71 L104.36,-120 M108.36,-123.65 L106.04,-122.97 M102.76,-120.92 L104.36,-120 106.04,-122.97 104.44,-123.89 M112.4,-150.91 L111.24,-152.65 M114.88,-157.12 L112.48,-155.76 M109.64,-153.57 L111.24,-152.65 112.48,-155.76 110.88,-156.68 M100.52,-130.04 L99.365,-131.78 M103,-136.25 L100.61,-134.89 M97.765,-132.7 L99.365,-131.78 100.61,-134.89 99.007,-135.81 M80.002,-119.07 L80.252,-119.22 M82.294,-104.93 C82.294,-104.93 81.005,-104.92 80.402,-105.11 79.514,-105.4 78.615,-105.7 77.824,-106.19 76.925,-106.75 76.021,-107.33 75.246,-108.05 73.508,-109.66 71.935,-111.43 70.781,-113.52 69.687,-115.51 68.599,-117.82 68.203,-120.08 68.023,-121.11 67.823,-122.16 67.864,-123.21 67.9,-124.13 67.916,-125.08 68.203,-125.96 68.384,-126.51 68.928,-127.54 68.928,-127.54 M142,-191.17 C142.08,-190.32 141.28,-189.6 140.64,-189.21 132.93,-184.6 125.17,-180 117.41,-175.44 116.39,-174.85 115.23,-174.65 114.07,-174.62 112.94,-174.58 111.7,-174.84 110.7,-175.4 102.79,-179.86 94.867,-184.37 86.988,-188.89 86.234,-189.33 85.648,-189.94 85.564,-190.83 M118.86,-169.23 L119.1,-169.16 M101.94,-98.246 C101.94,-98.246 102.31,-98.202 102.49,-98.207 102.9,-98.22 103.31,-98.232 103.71,-98.308 104.51,-98.46 105.12,-98.625 105.83,-99.034 108.41,-100.53 111.39,-101.53 113.53,-103.6 114.99,-105 115.74,-106.99 116.84,-108.68 M107.39,-115.59 L107.39,-114.97 107.63,-113.87 108.1,-113.01 108.78,-112.43 M114.99,-108.9 L114.31,-109.48 113.84,-110.34 113.6,-111.44 113.61,-112.04 M97.278,-119.01 L96.612,-119.65 96.171,-120.58 95.979,-121.74 96.046,-123.07 95.329,-124.03 M95.001,-124.47 C95.001,-124.47 94.586,-124.96 94.434,-125.24 93.957,-126.1 93.58,-127.04 93.336,-128 93.064,-129.06 93.081,-130.2 92.789,-131.26 92.7,-131.58 92.193,-131.58 91.941,-131.81 91.668,-132.05 91.51,-132.4 91.354,-132.73 90.985,-133.5 91.027,-134.61 91.102,-135.42 91.333,-137.89 92.777,-139.53 94.084,-141.47 94.516,-142.12 95.056,-143.93 95.205,-144.69 95.281,-145.08 95.048,-145.48 95.035,-145.88 95.022,-146.33 95.045,-146.78 95.128,-147.23 M97.808,-152.74 C96.498,-151.34 95.52,-149.33 95.128,-147.23 M97.808,-152.74 C98.486,-153.47 99.106,-154.05 99.983,-154.53 100.33,-154.72 100.75,-154.77 101.08,-154.98 101.4,-155.18 101.55,-155.57 101.79,-155.86 102.02,-156.14 102.26,-156.43 102.5,-156.71 103.78,-158.18 104.08,-160.15 105.39,-161.69 M110.64,-164.3 C109.13,-164.8 107.22,-163.85 105.39,-161.69 M96.965,-119.2 L96.186,-119.8 95.66,-120.74 95.42,-121.96 95.481,-123.39 93.645,-125.99 M124.19,-166.27 L123.27,-166.52 122.22,-166.41 121.1,-165.95 119.97,-165.17 118.8,-165.29 M118.29,-165.35 L117.33,-165.45 114.45,-165 111.43,-163.85 M100.18,-102.9 L107.32,-107.13 110.23,-111.6 M101.42,-102.19 L101.51,-102.23 102.41,-102.34 103.32,-102.24 104.1,-101.94 104.62,-101.5 104.81,-100.98 M93.645,-88.609 C93.645,-101.06 96.404,-113.85 93.645,-125.99 M127.22,-193.59 C127.22,-193.59 126.5,-194.73 126.03,-195.2 125.36,-195.88 124.55,-196.41 123.74,-196.9 122.82,-197.46 121.79,-197.84 120.77,-198.2 118.72,-198.91 115.79,-199.31 113.64,-199.26 110.97,-199.2 109.07,-198.93 106.54,-198.11 105.52,-197.78 104.55,-197.31 103.62,-196.78 102.8,-196.32 102.05,-195.73 101.39,-195.06 100.96,-194.63 100.35,-193.56 100.35,-193.56 M81.739,-104.08 C81.739,-104.08 81.351,-103.9 81.144,-103.9 80.341,-103.88 79.508,-103.89 78.742,-104.13 77.855,-104.41 76.956,-104.72 76.164,-105.21 75.265,-105.77 74.361,-106.34 73.586,-107.06 71.848,-108.68 70.275,-110.45 69.122,-112.54 68.028,-114.52 66.94,-116.84 66.544,-119.1 66.363,-120.13 66.163,-121.18 66.204,-122.23 66.241,-123.15 66.256,-124.1 66.544,-124.97 66.792,-125.73 67.034,-126.53 67.539,-127.15 67.62,-127.24 67.823,-127.41 67.823,-127.41 M61.911,-140.93 C62.621,-141.41 63.651,-141.06 64.306,-140.7 72.239,-136.27 80.134,-131.72 88.022,-127.21 89.049,-126.62 89.803,-125.71 90.417,-124.71 91.015,-123.75 91.401,-122.56 91.41,-121.42 91.481,-112.42 91.429,-103.39 91.41,-94.388 91.408,-93.524 91.158,-92.722 90.417,-92.222 M99.917,-194.58 C99.917,-194.58 99.937,-194.87 100,-194.99 100.38,-195.71 100.79,-196.44 101.39,-196.99 102.07,-197.63 102.79,-198.27 103.62,-198.71 104.56,-199.22 105.52,-199.73 106.54,-200.04 108.85,-200.76 111.2,-201.24 113.64,-201.19 115.96,-201.15 118.56,-200.93 120.77,-200.13 121.78,-199.76 122.82,-199.4 123.74,-198.83 124.55,-198.33 125.39,-197.83 126.03,-197.14 126.59,-196.53 127.18,-195.91 127.49,-195.15 127.57,-194.94 127.65,-194.5 127.65,-194.5 M85.564,-192.76 C85.648,-191.87 86.234,-191.26 86.988,-190.83 94.876,-186.32 102.77,-181.77 110.7,-177.34 111.7,-176.78 112.93,-176.51 114.07,-176.55 115.23,-176.59 116.4,-176.78 117.41,-177.38 125.16,-181.94 132.94,-186.5 140.64,-191.14 141.28,-191.53 142.08,-192.25 142,-193.1 M66.356,-126.96 C62.292,-125.03 62.15,-118.07 66.04,-111.43 69.929,-104.78 76.377,-100.96 80.441,-102.89 80.441,-102.89 80.441,-102.89 80.441,-102.89 M59.145,-139.29 C59.855,-139.77 60.885,-139.43 61.541,-139.06 69.473,-134.63 77.368,-130.08 85.256,-125.57 86.283,-124.98 87.037,-124.07 87.651,-123.08 88.249,-122.11 88.635,-120.92 88.644,-119.78 88.715,-110.78 88.663,-101.75 88.644,-92.749 88.642,-91.885 88.392,-91.083 87.651,-90.583 M81.42,-103.79 C81.42,-103.79 80.782,-103.5 80.442,-103.49 79.639,-103.47 78.806,-103.48 78.041,-103.72 76.087,-104.34 74.403,-105.24 72.887,-106.65 71.15,-108.27 69.577,-110.04 68.424,-112.13 67.332,-114.11 66.243,-116.42 65.848,-118.68 65.54,-120.44 65.264,-122.78 65.848,-124.55 66.096,-125.31 66.338,-126.11 66.842,-126.73 67.02,-126.94 67.464,-127.3 67.464,-127.3 M80.912,-103.32 C80.912,-103.32 79.898,-102.86 79.356,-102.85 78.553,-102.83 77.721,-102.84 76.955,-103.08 75.002,-103.7 73.319,-104.6 71.802,-106.01 70.065,-107.62 68.492,-109.4 67.34,-111.49 66.247,-113.47 65.159,-115.78 64.763,-118.04 64.456,-119.79 64.18,-122.14 64.763,-123.91 65.011,-124.67 65.254,-125.47 65.758,-126.08 66.082,-126.48 66.891,-127.12 66.891,-127.12 M71.607,-105.78 L69.225,-108.26 67.09,-111.34 65.452,-114.71 64.473,-117.96 M72.681,-106.43 L70.309,-108.9 68.174,-111.99 66.536,-115.35 65.56,-118.59 M128.01,-196.23 C128.27,-200.8 122.12,-204.47 114.26,-204.42 106.4,-204.38 99.819,-200.63 99.554,-196.07 M85.564,-195.98 C85.648,-195.09 86.234,-194.47 86.988,-194.04 94.876,-189.53 102.77,-184.98 110.7,-180.55 111.7,-180 112.93,-179.73 114.07,-179.77 115.23,-179.8 116.4,-180 117.41,-180.59 125.16,-185.16 132.94,-189.72 140.64,-194.36 141.28,-194.75 142.08,-195.47 142,-196.32 M127.73,-194.9 C127.73,-194.9 127.61,-195.57 127.49,-195.89 127.18,-196.65 126.59,-197.27 126.03,-197.88 124.73,-199.29 122.5,-200.24 120.77,-200.87 118.56,-201.67 115.96,-201.89 113.64,-201.93 111.2,-201.98 108.85,-201.5 106.54,-200.78 104.54,-200.16 102.9,-199.14 101.39,-197.73 100.79,-197.18 100.38,-196.45 100,-195.73 99.874,-195.49 99.833,-194.92 99.833,-194.92 M127.88,-195.62 C127.88,-195.62 127.69,-196.72 127.49,-197.24 127.18,-198 126.59,-198.62 126.03,-199.22 124.73,-200.64 122.5,-201.59 120.77,-202.22 118.56,-203.02 115.96,-203.23 113.64,-203.28 111.2,-203.33 108.85,-202.85 106.54,-202.13 104.54,-201.51 102.9,-200.49 101.39,-199.08 100.79,-198.52 100.38,-197.79 100,-197.08 99.759,-196.61 99.681,-195.54 99.681,-195.54 M120.84,-202.57 L117.47,-203.36 113.63,-203.63 109.8,-203.31 106.49,-202.5 M120.84,-201.23 L117.47,-202.01 113.63,-202.28 109.8,-201.97 106.49,-201.15 M59.463,-111.32 L62.309,-109.63 63.656,-106.02 M62.309,-109.63 L64.125,-110.71 M65.472,-107.1 L63.656,-106.02 62.157,-104.1 M80.906,-99.112 L83.752,-97.441 85.113,-93.831 M83.752,-97.441 L85.568,-98.518 M86.929,-94.908 L85.113,-93.831 83.627,-91.892 M59.463,-135.77 L62.309,-134.09 63.656,-130.48 M62.309,-134.09 L64.125,-135.16 M65.472,-131.55 L63.656,-130.48 62.157,-128.55 M80.906,-123.57 L83.752,-121.9 85.113,-118.29 M83.752,-121.9 L85.568,-122.98 M86.929,-119.37 L85.113,-118.29 83.627,-116.35 M96.497,-198.9 L95.406,-196.69 M88.8,-197.83 L91.557,-196.15 M95.388,-194.57 L95.406,-196.69 91.557,-196.15 91.539,-194.03 M117.95,-186.71 L116.88,-184.5 M110.26,-185.61 L113.04,-183.95 M116.86,-182.37 L116.88,-184.5 113.04,-183.95 113.02,-181.82 M117.52,-211.36 L116.43,-209.15 M109.82,-210.28 L112.58,-208.61 M116.41,-207.03 L116.43,-209.15 112.58,-208.61 112.56,-206.49 M138.97,-199.17 L137.9,-196.95 M131.28,-198.07 L134.06,-196.4 M137.88,-194.83 L137.9,-196.95 134.06,-196.4 134.04,-194.28 M38.705,-187.3 L37.566,-186.62 M37.566,-186.54 L37.566,-186.62 30.389,-190.7 M28.612,-192.88 L31.391,-191.3 M38.599,-187.2 L40.935,-185.87 M29.719,-191.24 L30.522,-190.78 M38.599,-186.19 L40.066,-185.35 M53.895,-160.11 L55.07,-159.44 M69.187,-182.85 L67.842,-183.62 M65.785,-180.98 L66.487,-180.58 M59.448,-147.32 L59.434,-147.35 59.411,-147.54 M61.133,-163.46 L61.147,-163.51 61.169,-163.55 M67.401,-174.5 L67.424,-174.53 67.455,-174.56 M80.195,-184.13 L80.438,-184.23 80.491,-184.24 M84.15,-184.65 L84.574,-184.69 85.035,-184.55 M85.564,-184.79 L83.106,-185.53 78.97,-185.07 75.825,-183.69 M71.371,-180.76 C71.371,-180.76 70.486,-180.17 70.092,-179.81 68.593,-178.45 67.169,-176.98 65.956,-175.37 64.686,-173.67 63.406,-171.96 62.404,-170.09 61.403,-168.22 60.385,-166.34 59.679,-164.34 59.005,-162.44 58.307,-160.51 57.966,-158.52 57.869,-157.95 57.784,-156.8 57.784,-156.8 M57.511,-151.94 L57.966,-148.19 59.679,-144.39 60.896,-143.27 M69.854,-210.39 L70.557,-209.74 70.999,-208.76 71.15,-207.51 70.999,-206.09 70.557,-204.59 69.854,-203.1 68.937,-201.74 67.87,-200.6 66.725,-199.74 65.579,-199.24 64.512,-199.12 63.595,-199.4 M65.245,-195.73 C67.519,-194.19 71.289,-196.32 73.666,-200.49 76.042,-204.67 76.125,-209.3 73.851,-210.84 73.851,-210.84 73.851,-210.84 73.851,-210.84 M72.167,-211.17 C72.167,-211.17 72.494,-210.54 72.603,-210.21 72.779,-209.66 72.788,-209.07 72.81,-208.5 72.835,-207.84 72.713,-207.19 72.603,-206.54 72.361,-205.13 71.697,-203.68 71.028,-202.43 70.324,-201.12 69.365,-200.01 68.3,-198.99 67.828,-198.53 67.275,-198.17 66.725,-197.81 66.243,-197.5 65.693,-197.3 65.15,-197.12 64.818,-197.01 64.106,-197 64.106,-197 M83.021,-211.07 L70.113,-188.4 M83.021,-211.07 L82.457,-211.39 M83.021,-211.07 L70.112,-218.44 M82.457,-211.39 L69.548,-188.72 M82.457,-211.39 L70.112,-218.44 M59.204,-191.89 L53.727,-195.02 M60.333,-191.25 L54.857,-194.38 M53.727,-195.02 L54.857,-194.38 M53.727,-195.02 C52.009,-192 34.061,-167.97 45.082,-161.64 M54.857,-194.38 L70.112,-221.17 M66.152,-194.59 L70.277,-183.66 M62.631,-196.6 L67.632,-183.35 M39.139,-175.34 L39.139,-177.57 39.851,-180.27 41.187,-182.91 42.988,-185.19 44.19,-186.15"/>
    </g>
  </g>
  <g id="AUTOID_002" vm2d:name="C3DCallouts" vm2d:type="layer">
    <a id="_4A48D939A75F445D95F40E298A960179" vm2d:name="280" vm2d:type="grobject" xlink:href="#">
      <path d="M688.23,601.01 L719.31,601.01 719.31,621.81 688.23,621.81 Z" fill="#fff" fill-opacity="0"/>
      <g transform="matrix(3.7254,0,0,3.78095,703.773,611.409)">
        <text font-family="Arial" font-size="5" x="-4.17128" y="1.73346" fill="#000">280</text>
      </g>
    </a>
    <g transform="matrix(3.78095,0,0,3.78095,-0,1122.97)" stroke-width="0.18" stroke-linecap="butt" stroke-linejoin="miter">
      <path stroke="#000" d="M182.03,-135.3 L167.78,-133.45"/>
    </g>
    <a id="_629864209E80447D9C2E19DE533673CB" vm2d:name="10" vm2d:type="grobject" xlink:href="#">
      <path d="M224.23,201.74 L244.95,201.74 244.95,222.54 224.23,222.54 Z" fill="#fff" fill-opacity="0"/>
      <g transform="matrix(3.7254,0,0,3.78095,234.591,212.14)">
        <text font-family="Arial" font-size="5" x="-2.78086" y="1.73346" fill="#000">10</text>
      </g>
    </a>
    <g transform="matrix(3.78095,0,0,3.78095,-0,1122.97)" stroke-width="0.18" stroke-linecap="butt" stroke-linejoin="miter">
      <path stroke="#000" d="M62.045,-238.15 L63.473,-214.92"/>
    </g>
    <a id="_2F2CE32913864241980C0546B9772666" vm2d:name="130" vm2d:type="grobject" xlink:href="#">
      <path d="M2.5057,551.1 L33.585,551.1 33.585,571.9 2.5057,571.9 Z" fill="#fff" fill-opacity="0"/>
      <g transform="matrix(3.7254,0,0,3.78095,18.0455,561.5)">
        <text font-family="Arial" font-size="5" x="-4.17128" y="1.73346" fill="#000">130</text>
      </g>
    </a>
    <g transform="matrix(3.78095,0,0,3.78095,-0,1122.97)" stroke-width="0.18" stroke-linecap="butt" stroke-linejoin="miter">
      <path stroke="#000" d="M8.8827,-151.25 L72.78,-151.71"/>
    </g>
  </g>
</svg>
