<?xml version="1.0" standalone="no"?>
<!DOCTYPE svg PUBLIC "-//W3C//DTD SVG 20010904//EN"
 "http://www.w3.org/TR/2001/REC-SVG-20010904/DTD/svg10.dtd">
<svg version="1.0" xmlns="http://www.w3.org/2000/svg"
 width="300.000000pt" height="300.000000pt" viewBox="0 0 300.000000 300.000000"
 preserveAspectRatio="xMidYMid meet">
<metadata>
Created by potrace 1.10, written by Peter Selinger 2001-2011
</metadata>
<g transform="translate(0.000000,300.000000) scale(0.100000,-0.100000)"
fill="#000000" stroke="none">
<path d="M220 2991 c-98 -30 -194 -132 -213 -226 -6 -29 -6 -29 4 -5 6 14 18
42 27 62 19 47 105 129 152 147 76 28 94 41 30 22z"/>
<path d="M2755 2991 c11 -5 36 -15 55 -22 19 -7 56 -33 82 -57 43 -40 59 -66
97 -152 10 -24 10 -24 4 5 -10 48 -41 103 -83 145 -42 42 -97 73 -145 83 -22
5 -25 4 -10 -2z"/>
<path d="M897 2783 c332 -2 874 -2 1205 0 332 1 61 2 -602 2 -663 0 -934 -1
-603 -2z"/>
<path d="M246 2754 c-14 -15 -26 -32 -26 -38 0 -6 7 -1 15 11 9 12 26 29 38
38 12 8 17 15 11 15 -6 0 -23 -12 -38 -26z"/>
<path d="M2727 2765 c12 -9 29 -26 38 -38 8 -12 15 -17 15 -11 0 6 -12 23 -26
38 -15 14 -32 26 -38 26 -6 0 -1 -7 11 -15z"/>
<path d="M215 1500 c0 -663 1 -934 2 -602 2 331 2 873 0 1205 -1 331 -2 60 -2
-603z"/>
<path d="M2785 1500 c0 -663 1 -934 2 -602 2 331 2 873 0 1205 -1 331 -2 60
-2 -603z"/>
<path d="M713 2363 c48 -2 126 -2 175 0 48 1 8 3 -88 3 -96 0 -136 -2 -87 -3z"/>
<path d="M1623 2363 c136 -2 358 -2 495 0 136 1 24 2 -248 2 -272 0 -384 -1
-247 -2z"/>
<path d="M556 2319 c-38 -44 -36 -98 5 -141 l31 -33 -26 33 c-35 45 -35 99 0
141 14 17 24 31 21 31 -3 0 -17 -14 -31 -31z"/>
<path d="M1032 2327 c46 -43 49 -106 8 -147 -24 -24 -27 -38 -4 -19 22 18 44
64 44 92 0 28 -38 88 -60 95 -8 3 -3 -7 12 -21z"/>
<path d="M1306 2319 c-38 -44 -36 -98 5 -141 l31 -33 -26 33 c-35 45 -35 99 0
141 14 17 24 31 21 31 -3 0 -17 -14 -31 -31z"/>
<path d="M2434 2322 c18 -23 26 -46 26 -72 0 -26 -8 -49 -26 -72 l-26 -33 31
33 c24 25 31 41 31 72 0 31 -7 47 -31 72 l-31 33 26 -33z"/>
<path d="M713 2133 c48 -2 126 -2 175 0 48 1 8 3 -88 3 -96 0 -136 -2 -87 -3z"/>
<path d="M1628 2133 c139 -2 364 -2 500 0 136 1 22 2 -253 2 -275 0 -386 -1
-247 -2z"/>
<path d="M723 1613 c48 -2 125 -2 170 0 45 1 6 3 -88 3 -93 0 -130 -2 -82 -3z"/>
<path d="M1628 1613 c139 -2 364 -2 500 0 136 1 22 2 -253 2 -275 0 -386 -1
-247 -2z"/>
<path d="M556 1569 c-38 -44 -36 -98 5 -141 l31 -33 -26 33 c-35 45 -35 99 0
141 14 17 24 31 21 31 -3 0 -17 -14 -31 -31z"/>
<path d="M1020 1596 c0 -3 9 -15 20 -26 41 -41 38 -104 -8 -147 -15 -14 -20
-24 -12 -21 22 7 60 67 60 95 0 28 -22 74 -44 92 -9 8 -16 11 -16 7z"/>
<path d="M1306 1569 c-38 -44 -36 -98 5 -141 l31 -33 -26 33 c-35 45 -35 99 0
141 14 17 24 31 21 31 -3 0 -17 -14 -31 -31z"/>
<path d="M2434 1572 c18 -23 26 -46 26 -72 0 -26 -8 -49 -26 -72 l-26 -33 31
33 c24 25 31 41 31 72 0 31 -7 47 -31 72 l-31 33 26 -33z"/>
<path d="M713 1383 c48 -2 126 -2 175 0 48 1 8 3 -88 3 -96 0 -136 -2 -87 -3z"/>
<path d="M1628 1383 c139 -2 364 -2 500 0 136 1 22 2 -253 2 -275 0 -386 -1
-247 -2z"/>
<path d="M713 863 c48 -2 126 -2 175 0 48 1 8 3 -88 3 -96 0 -136 -2 -87 -3z"/>
<path d="M1627 863 c133 -2 353 -2 490 0 136 1 28 2 -242 2 -269 0 -381 -1
-248 -2z"/>
<path d="M556 819 c-38 -44 -36 -98 5 -141 l31 -33 -26 33 c-35 45 -35 99 0
141 14 17 24 31 21 31 -3 0 -17 -14 -31 -31z"/>
<path d="M1020 848 c0 -5 9 -17 20 -28 39 -39 38 -102 -1 -141 -11 -11 -19
-23 -16 -25 7 -8 47 46 53 73 9 33 -2 68 -31 100 -13 15 -25 25 -25 21z"/>
<path d="M1306 819 c-38 -44 -36 -98 5 -141 l31 -33 -26 33 c-35 45 -35 99 0
141 14 17 24 31 21 31 -3 0 -17 -14 -31 -31z"/>
<path d="M2434 822 c18 -23 26 -46 26 -72 0 -26 -8 -49 -26 -72 l-26 -33 31
33 c24 25 31 41 31 72 0 31 -7 47 -31 72 l-31 33 26 -33z"/>
<path d="M713 633 c48 -2 126 -2 175 0 48 1 8 3 -88 3 -96 0 -136 -2 -87 -3z"/>
<path d="M1628 633 c139 -2 364 -2 500 0 136 1 22 2 -253 2 -275 0 -386 -1
-247 -2z"/>
<path d="M220 284 c0 -15 49 -64 64 -64 6 0 1 7 -11 15 -12 9 -29 26 -38 38
-8 12 -15 17 -15 11z"/>
<path d="M2743 254 c-17 -19 -28 -34 -24 -34 11 0 61 51 61 61 0 12 0 12 -37
-27z"/>
<path d="M7 235 c6 -32 30 -85 38 -85 4 0 -1 13 -34 90 -10 24 -10 24 -4 -5z"/>
<path d="M2984 233 c-19 -77 -104 -176 -174 -202 -65 -24 -78 -31 -45 -24 99
20 204 124 229 226 3 15 4 27 1 27 -2 0 -8 -12 -11 -27z"/>
<path d="M897 213 c332 -2 874 -2 1205 0 332 1 61 2 -602 2 -663 0 -934 -1
-603 -2z"/>
<path d="M68 117 c19 -26 72 -73 72 -65 0 2 -21 24 -47 48 -27 26 -37 33 -25
17z"/>
<path d="M165 35 c20 -16 86 -37 93 -30 2 2 -14 9 -37 15 -22 6 -43 15 -46 20
-3 6 -12 10 -18 10 -7 0 -3 -7 8 -15z"/>
</g>
</svg>
